<svg width="24" height="16" viewBox="0 0 24 16" fill="none" xmlns="http://www.w3.org/2000/svg">
<path d="M0 6.60098V5.22461C0 4.67232 0.447716 4.22461 1 4.22461H17.0208C17.5731 4.22461 18.0208 4.67232 18.0208 5.22461V6.60098H0Z" fill="#007E3C"/>
<path d="M0.514881 8.97744L0 6.86511H18.0208L17.5059 8.97744H0.514881Z" fill="#007E3C"/>
<path d="M19.9572 0.454871L17.506 9.50549L18.7932 10.2976L20.8283 3.01447C20.8947 2.77681 21.1584 2.65538 21.3822 2.75938L22.0699 3.07904C22.2559 3.16548 22.4772 3.09724 22.5822 2.92104L22.8557 2.46187C22.9233 2.34846 22.9306 2.20902 22.8752 2.0892L22.4596 1.19072C22.4194 1.1039 22.3495 1.03435 22.2625 0.994674L20.5092 0.195468C20.2846 0.0930748 20.0217 0.216593 19.9572 0.454871Z" fill="#007E3C"/>
<ellipse cx="9.52535" cy="13.4661" rx="1.80208" ry="1.84829" fill="#007E3C"/>
<path fill-rule="evenodd" clip-rule="evenodd" d="M0.562378 9.24133L0.903839 11.5558C0.976219 12.0464 1.39722 12.4098 1.89313 12.4098H2.30051C2.67969 11.6275 3.46689 11.0899 4.37652 11.0899C5.28615 11.0899 6.07335 11.6275 6.45253 12.4098H7.44927C7.82845 11.6275 8.61565 11.0899 9.52528 11.0899C10.4349 11.0899 11.2221 11.6275 11.6013 12.4098H17.506L23.4271 13.466L23.1697 12.4098L17.506 9.24133H0.562378ZM17.506 10.0335V11.8817H17.7635V10.0335H17.506Z" fill="#007E3C"/>
<ellipse cx="4.37655" cy="13.4661" rx="1.80208" ry="1.84829" fill="#007E3C"/>
</svg>
