<svg width="258" height="30" viewBox="0 0 258 30" fill="none" xmlns="http://www.w3.org/2000/svg">
<path d="M12.24 14.616C13.232 14.936 13.984 15.432 14.496 16.104C15.024 16.776 15.288 17.608 15.288 18.6C15.288 20.088 14.704 21.264 13.536 22.128C12.384 22.976 10.744 23.4 8.616 23.4H0V6.60004H8.16C10.176 6.60004 11.736 6.98404 12.84 7.75204C13.96 8.50404 14.52 9.57604 14.52 10.968C14.52 11.784 14.32 12.504 13.92 13.128C13.536 13.752 12.976 14.248 12.24 14.616ZM4.68 13.32H7.704C9.048 13.32 9.72 12.768 9.72 11.664C9.72 10.56 9.048 10.008 7.704 10.008H4.68V13.32ZM8.424 19.992C9.8 19.992 10.488 19.408 10.488 18.24C10.488 17.104 9.8 16.536 8.424 16.536H4.68V19.992H8.424Z" fill="white"/>
<path d="M31.3474 19.728V23.4H17.8594V6.60004H31.0354V10.272H22.5634V13.104H30.0274V16.656H22.5634V19.728H31.3474Z" fill="white"/>
<path d="M42.2153 23.736C40.4553 23.736 38.8713 23.368 37.4632 22.632C36.0713 21.88 34.9753 20.84 34.1753 19.512C33.3753 18.184 32.9753 16.68 32.9753 15C32.9753 13.32 33.3753 11.816 34.1753 10.488C34.9753 9.16004 36.0713 8.12804 37.4632 7.39204C38.8713 6.64004 40.4553 6.26404 42.2153 6.26404C43.7513 6.26404 45.1353 6.53604 46.3673 7.08004C47.5993 7.62404 48.6233 8.40804 49.4393 9.43204L46.4152 12.168C45.3272 10.856 44.0072 10.2 42.4552 10.2C41.5433 10.2 40.7273 10.4 40.0073 10.8C39.3033 11.2 38.7513 11.768 38.3512 12.504C37.9673 13.224 37.7752 14.056 37.7752 15C37.7752 15.944 37.9673 16.784 38.3512 17.52C38.7513 18.24 39.3033 18.8 40.0073 19.2C40.7273 19.6 41.5433 19.8 42.4552 19.8C44.0072 19.8 45.3272 19.144 46.4152 17.832L49.4393 20.568C48.6233 21.592 47.5993 22.376 46.3673 22.92C45.1353 23.464 43.7513 23.736 42.2153 23.736Z" fill="white"/>
<path d="M59.4904 23.736C57.7144 23.736 56.1144 23.36 54.6904 22.608C53.2824 21.856 52.1704 20.816 51.3544 19.488C50.5544 18.16 50.1544 16.664 50.1544 15C50.1544 13.336 50.5544 11.84 51.3544 10.512C52.1704 9.18404 53.2824 8.14404 54.6904 7.39204C56.1144 6.64004 57.7144 6.26404 59.4904 6.26404C61.2664 6.26404 62.8584 6.64004 64.2664 7.39204C65.6904 8.14404 66.8024 9.18404 67.6024 10.512C68.4184 11.84 68.8264 13.336 68.8264 15C68.8264 16.664 68.4184 18.16 67.6024 19.488C66.8024 20.816 65.6904 21.856 64.2664 22.608C62.8584 23.36 61.2664 23.736 59.4904 23.736ZM59.4904 19.8C60.3384 19.8 61.1064 19.6 61.7944 19.2C62.4824 18.8 63.0264 18.24 63.4264 17.52C63.8264 16.784 64.0264 15.944 64.0264 15C64.0264 14.056 63.8264 13.224 63.4264 12.504C63.0264 11.768 62.4824 11.2 61.7944 10.8C61.1064 10.4 60.3384 10.2 59.4904 10.2C58.6424 10.2 57.8744 10.4 57.1864 10.8C56.4984 11.2 55.9544 11.768 55.5544 12.504C55.1544 13.224 54.9544 14.056 54.9544 15C54.9544 15.944 55.1544 16.784 55.5544 17.52C55.9544 18.24 56.4984 18.8 57.1864 19.2C57.8744 19.6 58.6424 19.8 59.4904 19.8Z" fill="white"/>
<path d="M83.6072 14.616C84.5992 14.936 85.3512 15.432 85.8632 16.104C86.3912 16.776 86.6552 17.608 86.6552 18.6C86.6552 20.088 86.0712 21.264 84.9032 22.128C83.7512 22.976 82.1112 23.4 79.9832 23.4H71.3672V6.60004H79.5272C81.5432 6.60004 83.1032 6.98404 84.2072 7.75204C85.3272 8.50404 85.8872 9.57604 85.8872 10.968C85.8872 11.784 85.6872 12.504 85.2872 13.128C84.9032 13.752 84.3432 14.248 83.6072 14.616ZM76.0472 13.32H79.0712C80.4152 13.32 81.0872 12.768 81.0872 11.664C81.0872 10.56 80.4152 10.008 79.0712 10.008H76.0472V13.32ZM79.7912 19.992C81.1672 19.992 81.8552 19.408 81.8552 18.24C81.8552 17.104 81.1672 16.536 79.7912 16.536H76.0472V19.992H79.7912Z" fill="white"/>
<path d="M100.819 20.136H93.7146L92.3946 23.4H87.5466L94.9626 6.60004H99.6426L107.083 23.4H102.139L100.819 20.136ZM99.4266 16.632L97.2666 11.256L95.1066 16.632H99.4266Z" fill="white"/>
<path d="M122.158 6.60004V23.4H117.478V19.176H114.886L112.126 23.4H107.134L110.542 18.48C109.422 17.984 108.566 17.272 107.974 16.344C107.382 15.4 107.086 14.28 107.086 12.984C107.086 11.672 107.39 10.536 107.998 9.57604C108.606 8.61604 109.478 7.88004 110.614 7.36804C111.75 6.85604 113.078 6.60004 114.598 6.60004H122.158ZM114.694 10.344C112.822 10.344 111.886 11.2 111.886 12.912C111.886 13.76 112.118 14.408 112.582 14.856C113.062 15.288 113.75 15.504 114.646 15.504H117.478V10.344H114.694Z" fill="white"/>
<path d="M134.158 0V30" stroke="white"/>
<path d="M152.05 4.60352V5.64941H148.311V4.60352H152.05ZM148.496 4.60352V12H147.231V4.60352H148.496ZM153.171 4.60352V12H151.9V4.60352H153.171ZM159.563 10.7354V6.92773C159.563 6.63607 159.504 6.38314 159.385 6.16895C159.271 5.9502 159.098 5.78158 158.866 5.66309C158.633 5.5446 158.346 5.48535 158.004 5.48535C157.685 5.48535 157.405 5.54004 157.164 5.64941C156.927 5.75879 156.74 5.90234 156.603 6.08008C156.471 6.25781 156.405 6.44922 156.405 6.6543H155.14C155.14 6.38997 155.208 6.12793 155.345 5.86816C155.482 5.6084 155.678 5.3737 155.933 5.16406C156.193 4.94987 156.503 4.78125 156.863 4.6582C157.227 4.5306 157.633 4.4668 158.08 4.4668C158.617 4.4668 159.091 4.55794 159.501 4.74023C159.916 4.92253 160.24 5.19824 160.472 5.56738C160.709 5.93197 160.828 6.38997 160.828 6.94141V10.3867C160.828 10.6328 160.848 10.8949 160.889 11.1729C160.935 11.4508 161.001 11.6901 161.087 11.8906V12H159.768C159.704 11.8542 159.654 11.6605 159.618 11.4189C159.581 11.1729 159.563 10.945 159.563 10.7354ZM159.782 7.51562L159.795 8.4043H158.517C158.157 8.4043 157.836 8.43392 157.553 8.49316C157.271 8.54785 157.034 8.63216 156.842 8.74609C156.651 8.86003 156.505 9.00358 156.405 9.17676C156.305 9.34538 156.254 9.54362 156.254 9.77148C156.254 10.0039 156.307 10.2158 156.412 10.4072C156.516 10.5986 156.674 10.7513 156.883 10.8652C157.097 10.9746 157.36 11.0293 157.669 11.0293C158.057 11.0293 158.399 10.9473 158.695 10.7832C158.991 10.6191 159.226 10.4186 159.399 10.1816C159.577 9.94466 159.672 9.71452 159.686 9.49121L160.226 10.0996C160.194 10.291 160.108 10.5029 159.966 10.7354C159.825 10.9678 159.636 11.1911 159.399 11.4053C159.167 11.6149 158.889 11.7904 158.565 11.9316C158.246 12.0684 157.886 12.1367 157.485 12.1367C156.984 12.1367 156.544 12.0387 156.166 11.8428C155.792 11.6468 155.5 11.3848 155.291 11.0566C155.085 10.724 154.983 10.3525 154.983 9.94238C154.983 9.5459 155.06 9.19727 155.215 8.89648C155.37 8.59115 155.594 8.33822 155.885 8.1377C156.177 7.93262 156.528 7.77767 156.938 7.67285C157.348 7.56803 157.806 7.51562 158.312 7.51562H159.782ZM167.834 7.80957V8.83496H163.924V7.80957H167.834ZM164.191 4.60352V12H162.926V4.60352H164.191ZM168.86 4.60352V12H167.588V4.60352H168.86ZM173.966 12.1367C173.451 12.1367 172.984 12.0501 172.565 11.877C172.15 11.6992 171.792 11.4508 171.492 11.1318C171.195 10.8128 170.968 10.4346 170.808 9.99707C170.649 9.55957 170.569 9.08105 170.569 8.56152V8.27441C170.569 7.67285 170.658 7.13737 170.835 6.66797C171.013 6.19401 171.255 5.79297 171.56 5.46484C171.865 5.13672 172.212 4.88835 172.599 4.71973C172.986 4.55111 173.388 4.4668 173.802 4.4668C174.331 4.4668 174.787 4.55794 175.169 4.74023C175.557 4.92253 175.874 5.17773 176.12 5.50586C176.366 5.82943 176.548 6.21224 176.667 6.6543C176.785 7.0918 176.844 7.57031 176.844 8.08984V8.65723H171.321V7.625H175.58V7.5293C175.561 7.20117 175.493 6.88216 175.375 6.57227C175.261 6.26237 175.078 6.00716 174.828 5.80664C174.577 5.60612 174.235 5.50586 173.802 5.50586C173.515 5.50586 173.251 5.56738 173.009 5.69043C172.768 5.80892 172.56 5.98665 172.387 6.22363C172.214 6.46061 172.08 6.75 171.984 7.0918C171.888 7.43359 171.84 7.8278 171.84 8.27441V8.56152C171.84 8.91243 171.888 9.24284 171.984 9.55273C172.084 9.85807 172.228 10.127 172.415 10.3594C172.606 10.5918 172.836 10.7741 173.105 10.9062C173.378 11.0384 173.688 11.1045 174.035 11.1045C174.481 11.1045 174.86 11.0133 175.169 10.8311C175.479 10.6488 175.75 10.4049 175.983 10.0996L176.749 10.708C176.589 10.9495 176.386 11.1797 176.14 11.3984C175.894 11.6172 175.591 11.7949 175.231 11.9316C174.875 12.0684 174.454 12.1367 173.966 12.1367ZM183.263 4.60352V5.64941H179.688V4.60352H183.263ZM184.377 4.60352V12H183.113V4.60352H184.377ZM179.38 4.60352H180.652L180.46 8.17188C180.429 8.72331 180.376 9.21094 180.303 9.63477C180.235 10.054 180.139 10.4141 180.016 10.7148C179.898 11.0156 179.747 11.2617 179.565 11.4531C179.387 11.64 179.173 11.779 178.922 11.8701C178.672 11.9567 178.382 12 178.054 12H177.658V10.8857L177.931 10.8652C178.127 10.8516 178.293 10.806 178.43 10.7285C178.571 10.651 178.69 10.5371 178.786 10.3867C178.881 10.2318 178.959 10.0335 179.018 9.79199C179.082 9.55046 179.13 9.26335 179.162 8.93066C179.198 8.59798 179.225 8.21061 179.244 7.76855L179.38 4.60352ZM187.454 7.14648H189.675C190.272 7.14648 190.776 7.2513 191.186 7.46094C191.596 7.66602 191.906 7.95085 192.116 8.31543C192.33 8.67546 192.437 9.08561 192.437 9.5459C192.437 9.8877 192.378 10.209 192.259 10.5098C192.141 10.806 191.963 11.0658 191.726 11.2891C191.494 11.5124 191.204 11.6878 190.858 11.8154C190.516 11.9385 190.122 12 189.675 12H186.531V4.60352H187.795V10.9609H189.675C190.04 10.9609 190.332 10.8949 190.55 10.7627C190.769 10.6305 190.926 10.4596 191.022 10.25C191.118 10.0404 191.166 9.82161 191.166 9.59375C191.166 9.37044 191.118 9.15169 191.022 8.9375C190.926 8.72331 190.769 8.54557 190.55 8.4043C190.332 8.25846 190.04 8.18555 189.675 8.18555H187.454V7.14648ZM151.483 25.7354V21.9277C151.483 21.6361 151.424 21.3831 151.305 21.1689C151.191 20.9502 151.018 20.7816 150.786 20.6631C150.553 20.5446 150.266 20.4854 149.924 20.4854C149.605 20.4854 149.325 20.54 149.083 20.6494C148.847 20.7588 148.66 20.9023 148.523 21.0801C148.391 21.2578 148.325 21.4492 148.325 21.6543H147.06C147.06 21.39 147.128 21.1279 147.265 20.8682C147.402 20.6084 147.598 20.3737 147.853 20.1641C148.113 19.9499 148.423 19.7812 148.783 19.6582C149.147 19.5306 149.553 19.4668 150 19.4668C150.537 19.4668 151.011 19.5579 151.421 19.7402C151.836 19.9225 152.16 20.1982 152.392 20.5674C152.629 20.932 152.748 21.39 152.748 21.9414V25.3867C152.748 25.6328 152.768 25.8949 152.809 26.1729C152.855 26.4508 152.921 26.6901 153.007 26.8906V27H151.688C151.624 26.8542 151.574 26.6605 151.538 26.4189C151.501 26.1729 151.483 25.945 151.483 25.7354ZM151.702 22.5156L151.715 23.4043H150.437C150.077 23.4043 149.756 23.4339 149.473 23.4932C149.191 23.5479 148.954 23.6322 148.762 23.7461C148.571 23.86 148.425 24.0036 148.325 24.1768C148.224 24.3454 148.174 24.5436 148.174 24.7715C148.174 25.0039 148.227 25.2158 148.332 25.4072C148.436 25.5986 148.594 25.7513 148.803 25.8652C149.017 25.9746 149.279 26.0293 149.589 26.0293C149.977 26.0293 150.319 25.9473 150.615 25.7832C150.911 25.6191 151.146 25.4186 151.319 25.1816C151.497 24.9447 151.592 24.7145 151.606 24.4912L152.146 25.0996C152.114 25.291 152.028 25.5029 151.886 25.7354C151.745 25.9678 151.556 26.1911 151.319 26.4053C151.086 26.6149 150.808 26.7904 150.485 26.9316C150.166 27.0684 149.806 27.1367 149.405 27.1367C148.903 27.1367 148.464 27.0387 148.085 26.8428C147.712 26.6468 147.42 26.3848 147.21 26.0566C147.005 25.724 146.903 25.3525 146.903 24.9424C146.903 24.5459 146.98 24.1973 147.135 23.8965C147.29 23.5911 147.514 23.3382 147.805 23.1377C148.097 22.9326 148.448 22.7777 148.858 22.6729C149.268 22.568 149.726 22.5156 150.232 22.5156H151.702ZM156.07 19.6035H157.334L157.225 22.3721C157.198 23.0739 157.118 23.68 156.986 24.1904C156.854 24.7008 156.685 25.1361 156.48 25.4961C156.275 25.8516 156.045 26.1501 155.79 26.3916C155.539 26.6331 155.279 26.8359 155.01 27H154.381L154.416 25.9678L154.675 25.9609C154.826 25.7832 154.972 25.6009 155.113 25.4141C155.254 25.2227 155.384 24.9971 155.502 24.7373C155.621 24.473 155.719 24.1517 155.796 23.7734C155.878 23.3906 155.931 22.9235 155.954 22.3721L156.07 19.6035ZM156.384 19.6035H160.834V27H159.57V20.7725H156.384V19.6035ZM154.094 25.9609H161.785V29.1807H160.52V27H155.359V29.1807H154.087L154.094 25.9609ZM167.438 25.3184L169.954 19.6035H171.17L167.875 27H167L163.719 19.6035H164.936L167.438 25.3184ZM164.567 19.6035V27H163.302V19.6035H164.567ZM170.268 27V19.6035H171.54V27H170.268ZM174.944 24.9971L178.355 19.6035H179.626V27H178.355V21.6064L174.944 27H173.686V19.6035H174.944V24.9971ZM186.674 22.8096V23.835H182.764V22.8096H186.674ZM183.031 19.6035V27H181.766V19.6035H183.031ZM187.7 19.6035V27H186.428V19.6035H187.7ZM191.104 24.9971L194.515 19.6035H195.787V27H194.515V21.6064L191.104 27H189.846V19.6035H191.104V24.9971ZM200.777 26.0977C201.078 26.0977 201.356 26.0361 201.611 25.9131C201.866 25.79 202.076 25.6214 202.24 25.4072C202.404 25.1885 202.497 24.9401 202.52 24.6621H203.723C203.7 25.0996 203.552 25.5075 203.279 25.8857C203.01 26.2594 202.657 26.5625 202.219 26.7949C201.782 27.0228 201.301 27.1367 200.777 27.1367C200.221 27.1367 199.736 27.0387 199.321 26.8428C198.911 26.6468 198.569 26.3779 198.295 26.0361C198.027 25.6943 197.824 25.3024 197.687 24.8604C197.555 24.4137 197.489 23.9421 197.489 23.4453V23.1582C197.489 22.6615 197.555 22.1921 197.687 21.75C197.824 21.3034 198.027 20.9092 198.295 20.5674C198.569 20.2256 198.911 19.9567 199.321 19.7607C199.736 19.5648 200.221 19.4668 200.777 19.4668C201.356 19.4668 201.861 19.5853 202.294 19.8223C202.727 20.0547 203.067 20.3737 203.313 20.7793C203.564 21.1803 203.7 21.6361 203.723 22.1465H202.52C202.497 21.8411 202.411 21.5654 202.26 21.3193C202.114 21.0732 201.914 20.8773 201.659 20.7314C201.408 20.5811 201.114 20.5059 200.777 20.5059C200.389 20.5059 200.064 20.5833 199.799 20.7383C199.54 20.8887 199.332 21.0938 199.177 21.3535C199.027 21.6087 198.917 21.8936 198.849 22.208C198.785 22.5179 198.753 22.8346 198.753 23.1582V23.4453C198.753 23.7689 198.785 24.0879 198.849 24.4023C198.913 24.7168 199.02 25.0016 199.17 25.2568C199.325 25.512 199.533 25.7171 199.792 25.8721C200.057 26.0225 200.385 26.0977 200.777 26.0977ZM208.16 19.6035V27H206.888V19.6035H208.16ZM210.641 19.6035V20.6289H204.455V19.6035H210.641ZM213.15 21.0254V29.8438H211.878V19.6035H213.041L213.15 21.0254ZM218.133 23.2402V23.3838C218.133 23.9215 218.069 24.4206 217.942 24.8809C217.814 25.3366 217.627 25.7331 217.381 26.0703C217.14 26.4076 216.841 26.6696 216.486 26.8564C216.13 27.0433 215.722 27.1367 215.262 27.1367C214.793 27.1367 214.378 27.0592 214.018 26.9043C213.658 26.7493 213.353 26.5238 213.102 26.2275C212.851 25.9313 212.651 25.5758 212.5 25.1611C212.355 24.7464 212.254 24.2793 212.2 23.7598V22.9941C212.254 22.4473 212.357 21.9574 212.507 21.5244C212.658 21.0915 212.856 20.7223 213.102 20.417C213.353 20.1071 213.656 19.8724 214.011 19.7129C214.367 19.5488 214.777 19.4668 215.242 19.4668C215.707 19.4668 216.119 19.5579 216.479 19.7402C216.839 19.918 217.142 20.1732 217.388 20.5059C217.634 20.8385 217.819 21.2373 217.942 21.7021C218.069 22.1624 218.133 22.6751 218.133 23.2402ZM216.862 23.3838V23.2402C216.862 22.8711 216.823 22.5247 216.746 22.2012C216.668 21.873 216.547 21.5859 216.383 21.3398C216.224 21.0892 216.019 20.8932 215.768 20.752C215.517 20.6061 215.219 20.5332 214.873 20.5332C214.554 20.5332 214.276 20.5879 214.039 20.6973C213.806 20.8066 213.608 20.9548 213.444 21.1416C213.28 21.3239 213.145 21.5335 213.041 21.7705C212.94 22.0029 212.865 22.2445 212.815 22.4951V24.2656C212.906 24.5846 213.034 24.8854 213.198 25.168C213.362 25.446 213.581 25.6715 213.854 25.8447C214.127 26.0133 214.472 26.0977 214.886 26.0977C215.228 26.0977 215.522 26.027 215.768 25.8857C216.019 25.7399 216.224 25.5417 216.383 25.291C216.547 25.0404 216.668 24.7533 216.746 24.4297C216.823 24.1016 216.862 23.7529 216.862 23.3838ZM224.108 25.7354V21.9277C224.108 21.6361 224.049 21.3831 223.93 21.1689C223.816 20.9502 223.643 20.7816 223.411 20.6631C223.178 20.5446 222.891 20.4854 222.549 20.4854C222.23 20.4854 221.95 20.54 221.708 20.6494C221.472 20.7588 221.285 20.9023 221.148 21.0801C221.016 21.2578 220.95 21.4492 220.95 21.6543H219.685C219.685 21.39 219.753 21.1279 219.89 20.8682C220.027 20.6084 220.223 20.3737 220.478 20.1641C220.738 19.9499 221.048 19.7812 221.408 19.6582C221.772 19.5306 222.178 19.4668 222.625 19.4668C223.162 19.4668 223.636 19.5579 224.046 19.7402C224.461 19.9225 224.785 20.1982 225.017 20.5674C225.254 20.932 225.373 21.39 225.373 21.9414V25.3867C225.373 25.6328 225.393 25.8949 225.434 26.1729C225.48 26.4508 225.546 26.6901 225.632 26.8906V27H224.313C224.249 26.8542 224.199 26.6605 224.163 26.4189C224.126 26.1729 224.108 25.945 224.108 25.7354ZM224.327 22.5156L224.34 23.4043H223.062C222.702 23.4043 222.381 23.4339 222.098 23.4932C221.816 23.5479 221.579 23.6322 221.387 23.7461C221.196 23.86 221.05 24.0036 220.95 24.1768C220.849 24.3454 220.799 24.5436 220.799 24.7715C220.799 25.0039 220.852 25.2158 220.957 25.4072C221.061 25.5986 221.219 25.7513 221.428 25.8652C221.642 25.9746 221.904 26.0293 222.214 26.0293C222.602 26.0293 222.944 25.9473 223.24 25.7832C223.536 25.6191 223.771 25.4186 223.944 25.1816C224.122 24.9447 224.217 24.7145 224.231 24.4912L224.771 25.0996C224.739 25.291 224.653 25.5029 224.511 25.7354C224.37 25.9678 224.181 26.1911 223.944 26.4053C223.711 26.6149 223.433 26.7904 223.11 26.9316C222.791 27.0684 222.431 27.1367 222.03 27.1367C221.528 27.1367 221.089 27.0387 220.71 26.8428C220.337 26.6468 220.045 26.3848 219.835 26.0566C219.63 25.724 219.528 25.3525 219.528 24.9424C219.528 24.5459 219.605 24.1973 219.76 23.8965C219.915 23.5911 220.139 23.3382 220.43 23.1377C220.722 22.9326 221.073 22.7777 221.483 22.6729C221.893 22.568 222.351 22.5156 222.857 22.5156H224.327ZM230.267 19.6035V27H228.996V19.6035H230.267ZM232.749 19.6035V20.6289H226.562V19.6035H232.749ZM233.371 23.3838V23.2266C233.371 22.6934 233.448 22.1989 233.603 21.7432C233.758 21.2829 233.981 20.8841 234.273 20.5469C234.565 20.2051 234.918 19.9408 235.333 19.7539C235.747 19.5625 236.212 19.4668 236.727 19.4668C237.247 19.4668 237.714 19.5625 238.128 19.7539C238.548 19.9408 238.903 20.2051 239.195 20.5469C239.491 20.8841 239.717 21.2829 239.872 21.7432C240.027 22.1989 240.104 22.6934 240.104 23.2266V23.3838C240.104 23.917 240.027 24.4115 239.872 24.8672C239.717 25.3229 239.491 25.7217 239.195 26.0635C238.903 26.4007 238.55 26.665 238.135 26.8564C237.725 27.0433 237.26 27.1367 236.741 27.1367C236.221 27.1367 235.754 27.0433 235.339 26.8564C234.925 26.665 234.569 26.4007 234.273 26.0635C233.981 25.7217 233.758 25.3229 233.603 24.8672C233.448 24.4115 233.371 23.917 233.371 23.3838ZM234.635 23.2266V23.3838C234.635 23.7529 234.679 24.1016 234.765 24.4297C234.852 24.7533 234.982 25.0404 235.155 25.291C235.333 25.5417 235.554 25.7399 235.818 25.8857C236.082 26.027 236.39 26.0977 236.741 26.0977C237.087 26.0977 237.39 26.027 237.65 25.8857C237.914 25.7399 238.133 25.5417 238.306 25.291C238.479 25.0404 238.609 24.7533 238.696 24.4297C238.787 24.1016 238.833 23.7529 238.833 23.3838V23.2266C238.833 22.862 238.787 22.5179 238.696 22.1943C238.609 21.8662 238.477 21.5768 238.299 21.3262C238.126 21.071 237.907 20.8704 237.643 20.7246C237.383 20.5788 237.078 20.5059 236.727 20.5059C236.381 20.5059 236.075 20.5788 235.811 20.7246C235.551 20.8704 235.333 21.071 235.155 21.3262C234.982 21.5768 234.852 21.8662 234.765 22.1943C234.679 22.5179 234.635 22.862 234.635 23.2266ZM242.955 21.0254V29.8438H241.683V19.6035H242.845L242.955 21.0254ZM247.938 23.2402V23.3838C247.938 23.9215 247.874 24.4206 247.747 24.8809C247.619 25.3366 247.432 25.7331 247.186 26.0703C246.944 26.4076 246.646 26.6696 246.291 26.8564C245.935 27.0433 245.527 27.1367 245.067 27.1367C244.597 27.1367 244.183 27.0592 243.823 26.9043C243.463 26.7493 243.157 26.5238 242.907 26.2275C242.656 25.9313 242.456 25.5758 242.305 25.1611C242.159 24.7464 242.059 24.2793 242.004 23.7598V22.9941C242.059 22.4473 242.162 21.9574 242.312 21.5244C242.462 21.0915 242.661 20.7223 242.907 20.417C243.157 20.1071 243.46 19.8724 243.816 19.7129C244.171 19.5488 244.582 19.4668 245.046 19.4668C245.511 19.4668 245.924 19.5579 246.284 19.7402C246.644 19.918 246.947 20.1732 247.193 20.5059C247.439 20.8385 247.624 21.2373 247.747 21.7021C247.874 22.1624 247.938 22.6751 247.938 23.2402ZM246.667 23.3838V23.2402C246.667 22.8711 246.628 22.5247 246.55 22.2012C246.473 21.873 246.352 21.5859 246.188 21.3398C246.028 21.0892 245.823 20.8932 245.573 20.752C245.322 20.6061 245.024 20.5332 244.677 20.5332C244.358 20.5332 244.08 20.5879 243.843 20.6973C243.611 20.8066 243.413 20.9548 243.249 21.1416C243.084 21.3239 242.95 21.5335 242.845 21.7705C242.745 22.0029 242.67 22.2445 242.62 22.4951V24.2656C242.711 24.5846 242.838 24.8854 243.002 25.168C243.167 25.446 243.385 25.6715 243.659 25.8447C243.932 26.0133 244.276 26.0977 244.691 26.0977C245.033 26.0977 245.327 26.027 245.573 25.8857C245.823 25.7399 246.028 25.5417 246.188 25.291C246.352 25.0404 246.473 24.7533 246.55 24.4297C246.628 24.1016 246.667 23.7529 246.667 23.3838ZM253.913 25.7354V21.9277C253.913 21.6361 253.853 21.3831 253.735 21.1689C253.621 20.9502 253.448 20.7816 253.215 20.6631C252.983 20.5446 252.696 20.4854 252.354 20.4854C252.035 20.4854 251.755 20.54 251.513 20.6494C251.276 20.7588 251.089 20.9023 250.953 21.0801C250.82 21.2578 250.754 21.4492 250.754 21.6543H249.49C249.49 21.39 249.558 21.1279 249.695 20.8682C249.832 20.6084 250.028 20.3737 250.283 20.1641C250.542 19.9499 250.852 19.7812 251.212 19.6582C251.577 19.5306 251.983 19.4668 252.429 19.4668C252.967 19.4668 253.441 19.5579 253.851 19.7402C254.266 19.9225 254.589 20.1982 254.822 20.5674C255.059 20.932 255.177 21.39 255.177 21.9414V25.3867C255.177 25.6328 255.198 25.8949 255.239 26.1729C255.284 26.4508 255.35 26.6901 255.437 26.8906V27H254.118C254.054 26.8542 254.004 26.6605 253.967 26.4189C253.931 26.1729 253.913 25.945 253.913 25.7354ZM254.131 22.5156L254.145 23.4043H252.867C252.507 23.4043 252.185 23.4339 251.903 23.4932C251.62 23.5479 251.383 23.6322 251.192 23.7461C251 23.86 250.855 24.0036 250.754 24.1768C250.654 24.3454 250.604 24.5436 250.604 24.7715C250.604 25.0039 250.656 25.2158 250.761 25.4072C250.866 25.5986 251.023 25.7513 251.233 25.8652C251.447 25.9746 251.709 26.0293 252.019 26.0293C252.406 26.0293 252.748 25.9473 253.044 25.7832C253.341 25.6191 253.575 25.4186 253.749 25.1816C253.926 24.9447 254.022 24.7145 254.036 24.4912L254.576 25.0996C254.544 25.291 254.457 25.5029 254.316 25.7354C254.175 25.9678 253.986 26.1911 253.749 26.4053C253.516 26.6149 253.238 26.7904 252.915 26.9316C252.596 27.0684 252.236 27.1367 251.834 27.1367C251.333 27.1367 250.893 27.0387 250.515 26.8428C250.141 26.6468 249.85 26.3848 249.64 26.0566C249.435 25.724 249.333 25.3525 249.333 24.9424C249.333 24.5459 249.41 24.1973 249.565 23.8965C249.72 23.5911 249.943 23.3382 250.235 23.1377C250.527 22.9326 250.877 22.7777 251.288 22.6729C251.698 22.568 252.156 22.5156 252.662 22.5156H254.131Z" fill="white"/>
</svg>
