<svg width="288" height="35" viewBox="0 0 288 35" fill="none" xmlns="http://www.w3.org/2000/svg">
<path d="M16.9958 17.3667C18.1966 17.7541 19.1069 18.3545 19.7267 19.168C20.3659 19.9815 20.6855 20.9886 20.6855 22.1895C20.6855 23.9907 19.9785 25.4143 18.5646 26.4602C17.1701 27.4867 15.1848 28 12.6088 28H2.17895V7.66316H12.0568C14.4973 7.66316 16.3857 8.128 17.7221 9.05768C19.0779 9.968 19.7558 11.2657 19.7558 12.9507C19.7558 13.9385 19.5137 14.8101 19.0295 15.5655C18.5646 16.3208 17.8867 16.9213 16.9958 17.3667ZM7.84421 15.7979H11.5048C13.1318 15.7979 13.9453 15.1297 13.9453 13.7933C13.9453 12.4568 13.1318 11.7886 11.5048 11.7886H7.84421V15.7979ZM12.3764 23.8745C14.0421 23.8745 14.8749 23.1676 14.8749 21.7537C14.8749 20.3785 14.0421 19.6909 12.3764 19.6909H7.84421V23.8745H12.3764ZM40.1258 23.5549V28H23.7982V7.66316H39.7481V12.1082H29.4925V15.5364H38.5279V19.8362H29.4925V23.5549H40.1258ZM53.2816 28.4067C51.1511 28.4067 49.2336 27.9613 47.5292 27.0703C45.8441 26.16 44.5174 24.9011 43.549 23.2935C42.5806 21.6859 42.0964 19.8653 42.0964 17.8316C42.0964 15.7979 42.5806 13.9773 43.549 12.3697C44.5174 10.7621 45.8441 9.51284 47.5292 8.62189C49.2336 7.71158 51.1511 7.25642 53.2816 7.25642C55.141 7.25642 56.8164 7.58568 58.3077 8.24421C59.7991 8.90274 61.0387 9.85179 62.0265 11.0914L58.3658 14.4034C57.0488 12.8152 55.4509 12.0211 53.5721 12.0211C52.4681 12.0211 51.4804 12.2632 50.6088 12.7474C49.7566 13.2316 49.0884 13.9192 48.6041 14.8101C48.1393 15.6817 47.9069 16.6888 47.9069 17.8316C47.9069 18.9743 48.1393 19.9912 48.6041 20.8821C49.0884 21.7537 49.7566 22.4316 50.6088 22.9158C51.4804 23.4 52.4681 23.6421 53.5721 23.6421C55.4509 23.6421 57.0488 22.848 58.3658 21.2598L62.0265 24.5718C61.0387 25.8114 59.7991 26.7604 58.3077 27.4189C56.8164 28.0775 55.141 28.4067 53.2816 28.4067ZM74.1936 28.4067C72.0437 28.4067 70.1069 27.9516 68.3831 27.0413C66.6787 26.1309 65.3326 24.872 64.3448 23.2644C63.3764 21.6568 62.8921 19.8459 62.8921 17.8316C62.8921 15.8173 63.3764 14.0063 64.3448 12.3987C65.3326 10.7912 66.6787 9.53221 68.3831 8.62189C70.1069 7.71158 72.0437 7.25642 74.1936 7.25642C76.3435 7.25642 78.2707 7.71158 79.9751 8.62189C81.6989 9.53221 83.045 10.7912 84.0134 12.3987C85.0012 14.0063 85.4951 15.8173 85.4951 17.8316C85.4951 19.8459 85.0012 21.6568 84.0134 23.2644C83.045 24.872 81.6989 26.1309 79.9751 27.0413C78.2707 27.9516 76.3435 28.4067 74.1936 28.4067ZM74.1936 23.6421C75.2201 23.6421 76.1498 23.4 76.9827 22.9158C77.8155 22.4316 78.474 21.7537 78.9582 20.8821C79.4425 19.9912 79.6846 18.9743 79.6846 17.8316C79.6846 16.6888 79.4425 15.6817 78.9582 14.8101C78.474 13.9192 77.8155 13.2316 76.9827 12.7474C76.1498 12.2632 75.2201 12.0211 74.1936 12.0211C73.1671 12.0211 72.2374 12.2632 71.4046 12.7474C70.5717 13.2316 69.9132 13.9192 69.429 14.8101C68.9448 15.6817 68.7027 16.6888 68.7027 17.8316C68.7027 18.9743 68.9448 19.9912 69.429 20.8821C69.9132 21.7537 70.5717 22.4316 71.4046 22.9158C72.2374 23.4 73.1671 23.6421 74.1936 23.6421ZM103.388 17.3667C104.588 17.7541 105.499 18.3545 106.119 19.168C106.758 19.9815 107.077 20.9886 107.077 22.1895C107.077 23.9907 106.37 25.4143 104.956 26.4602C103.562 27.4867 101.577 28 99.0007 28H88.5708V7.66316H98.4487C100.889 7.66316 102.778 8.128 104.114 9.05768C105.47 9.968 106.148 11.2657 106.148 12.9507C106.148 13.9385 105.906 14.8101 105.421 15.5655C104.956 16.3208 104.279 16.9213 103.388 17.3667ZM94.2361 15.7979H97.8967C99.5237 15.7979 100.337 15.1297 100.337 13.7933C100.337 12.4568 99.5237 11.7886 97.8967 11.7886H94.2361V15.7979ZM98.7683 23.8745C100.434 23.8745 101.267 23.1676 101.267 21.7537C101.267 20.3785 100.434 19.6909 98.7683 19.6909H94.2361V23.8745H98.7683ZM124.222 24.0488H115.623L114.025 28H108.156L117.134 7.66316H122.799L131.805 28H125.82L124.222 24.0488ZM122.537 19.8072L119.923 13.2994L117.308 19.8072H122.537ZM150.054 7.66316V28H144.389V22.8867H141.251L137.91 28H131.867L135.993 22.0442C134.637 21.4438 133.601 20.5819 132.884 19.4585C132.167 18.3158 131.809 16.96 131.809 15.3912C131.809 13.8029 132.177 12.4278 132.913 11.2657C133.649 10.1036 134.705 9.21263 136.08 8.59284C137.455 7.97305 139.063 7.66316 140.903 7.66316H150.054ZM141.019 12.1954C138.753 12.1954 137.62 13.2316 137.62 15.304C137.62 16.3305 137.9 17.1149 138.462 17.6573C139.043 18.1802 139.876 18.4417 140.961 18.4417H144.389V12.1954H141.019Z" fill="white"/>
<path d="M163.807 18H165.618V26.8662L165.44 28.5H163.807V18ZM170.376 24.7266V24.8701C170.376 25.4215 170.314 25.9274 170.191 26.3877C170.073 26.848 169.893 27.2467 169.651 27.584C169.41 27.9167 169.109 28.1764 168.749 28.3633C168.394 28.5456 167.977 28.6367 167.498 28.6367C167.042 28.6367 166.646 28.5479 166.309 28.3701C165.976 28.1924 165.696 27.9417 165.468 27.6182C165.24 27.29 165.058 26.9049 164.921 26.4629C164.784 26.0163 164.682 25.5286 164.613 25V24.6104C164.682 24.0771 164.784 23.5895 164.921 23.1475C165.058 22.7054 165.24 22.3203 165.468 21.9922C165.696 21.6641 165.976 21.4111 166.309 21.2334C166.641 21.0557 167.033 20.9668 167.484 20.9668C167.967 20.9668 168.389 21.0602 168.749 21.2471C169.114 21.4294 169.414 21.6891 169.651 22.0264C169.893 22.359 170.073 22.7555 170.191 23.2158C170.314 23.6715 170.376 24.1751 170.376 24.7266ZM168.564 24.8701V24.7266C168.564 24.4121 168.539 24.1159 168.489 23.8379C168.439 23.5553 168.357 23.307 168.243 23.0928C168.129 22.8786 167.974 22.71 167.778 22.5869C167.582 22.4639 167.336 22.4023 167.04 22.4023C166.757 22.4023 166.516 22.4502 166.315 22.5459C166.119 22.6416 165.955 22.7738 165.823 22.9424C165.696 23.111 165.595 23.3092 165.522 23.5371C165.454 23.765 165.409 24.0111 165.386 24.2754V25.3418C165.418 25.6927 165.493 26.0094 165.611 26.292C165.73 26.57 165.905 26.791 166.138 26.9551C166.375 27.1191 166.68 27.2012 167.054 27.2012C167.345 27.2012 167.589 27.1442 167.785 27.0303C167.981 26.9118 168.136 26.7477 168.25 26.5381C168.364 26.3239 168.444 26.0755 168.489 25.793C168.539 25.5104 168.564 25.2028 168.564 24.8701ZM173.773 27.6797L175.756 21.1035H177.69L174.724 29.6211C174.655 29.8034 174.566 30.0016 174.457 30.2158C174.352 30.43 174.211 30.6328 174.033 30.8242C173.855 31.0202 173.632 31.1797 173.363 31.3027C173.099 31.4258 172.778 31.4873 172.399 31.4873C172.235 31.4873 172.09 31.4759 171.962 31.4531C171.834 31.4303 171.7 31.4007 171.559 31.3643V30.0107C171.604 30.0153 171.657 30.0176 171.716 30.0176C171.78 30.0221 171.834 30.0244 171.88 30.0244C172.144 30.0244 172.363 29.9925 172.536 29.9287C172.709 29.8695 172.848 29.7715 172.953 29.6348C173.062 29.5026 173.154 29.3294 173.227 29.1152L173.773 27.6797ZM172.796 21.1035L174.471 26.5518L174.765 28.459L173.521 28.6846L170.848 21.1035H172.796Z" fill="white"/>
<g clip-path="url(#clip0_190_27389)">
<path d="M220.831 30.0015H219.618L219.387 30.685H218.651L219.902 27.3676H220.544L221.802 30.685H221.066L220.831 30.0015ZM219.804 29.4472H220.645L220.222 28.2057L219.804 29.4472Z" fill="white"/>
<path d="M224.32 27.9219H222.813V30.6862H222.12V27.3688H224.32V27.9231V27.9219Z" fill="white"/>
<path d="M225.442 29.5167V30.6851H224.75V27.3677H226.059C226.289 27.3628 226.516 27.4103 226.726 27.5041C226.907 27.5882 227.059 27.7234 227.163 27.8927C227.268 28.0657 227.322 28.2655 227.318 28.4665C227.332 28.7614 227.206 29.0452 226.979 29.2365C226.712 29.44 226.38 29.5411 226.043 29.524L225.442 29.5167ZM225.442 28.9624H226.062C226.212 28.9721 226.362 28.9271 226.48 28.8345C226.581 28.7407 226.635 28.6067 226.626 28.4702C226.632 28.3252 226.58 28.1839 226.48 28.0767C226.374 27.9719 226.228 27.9159 226.079 27.922H225.443V28.9624H225.442Z" fill="white"/>
<path d="M230.561 29.1012C230.568 29.3973 230.508 29.6921 230.385 29.9626C230.279 30.1989 230.105 30.3987 229.882 30.5364C229.421 30.802 228.849 30.802 228.387 30.5364C228.167 30.4011 227.99 30.2038 227.88 29.9711C227.757 29.7055 227.694 29.4168 227.699 29.1244V28.9611C227.692 28.6639 227.754 28.3702 227.878 28.0998C227.985 27.8634 228.16 27.6636 228.383 27.526C228.844 27.2604 229.415 27.2604 229.876 27.526C230.098 27.6636 230.275 27.8634 230.382 28.0998C230.507 28.3702 230.568 28.6639 230.561 28.9611V29.1012ZM229.859 28.9575C229.877 28.6809 229.812 28.4044 229.67 28.1644C229.452 27.8707 229.032 27.8074 228.734 28.0243C228.68 28.0632 228.632 28.1108 228.592 28.1644C228.45 28.4019 228.384 28.6748 228.4 28.9502V29.1122C228.384 29.3875 228.449 29.6616 228.589 29.9004C228.707 30.0832 228.915 30.1892 229.134 30.1806C229.348 30.1892 229.552 30.0868 229.67 29.9102C229.811 29.6726 229.876 29.3985 229.859 29.1232V28.9562V28.9575Z" fill="white"/>
<path d="M233.398 27.9219H232.37V30.6862H231.678V27.9219H230.659V27.3676H233.397V27.9219H233.398Z" fill="white"/>
<path d="M235.814 29.2462H234.485V30.1343H236.045V30.6837H233.792V27.3663H236.041V27.9207H234.485V28.7101H235.814V29.2462Z" fill="white"/>
<path d="M237.655 28.5115L238.284 27.3627H239.082L238.103 29.0074L239.107 30.6801H238.302L237.655 29.5166L237.009 30.6801H236.203L237.207 29.0074L236.228 27.3627H237.025L237.655 28.5115Z" fill="white"/>
<path d="M242.19 30.685H241.498V29.262H240.147V30.685H239.455V27.3676H240.147V28.7113H241.498V27.3676H242.19V30.685Z" fill="white"/>
<path d="M245.556 29.1012C245.564 29.3973 245.503 29.6921 245.382 29.9626C245.276 30.1989 245.101 30.3987 244.879 30.5364C244.417 30.802 243.847 30.802 243.385 30.5364C243.163 30.4011 242.986 30.2038 242.877 29.9711C242.753 29.7055 242.69 29.4168 242.695 29.1244V28.9611C242.689 28.6639 242.75 28.3702 242.874 28.0998C242.981 27.8634 243.158 27.6636 243.38 27.526C243.842 27.2604 244.412 27.2604 244.874 27.526C245.095 27.6649 245.271 27.8647 245.378 28.0998C245.503 28.3702 245.564 28.6639 245.557 28.9611V29.1012H245.556ZM244.855 28.9575C244.872 28.6809 244.807 28.4044 244.666 28.1644C244.448 27.8707 244.028 27.8074 243.73 28.0243C243.676 28.0632 243.628 28.1108 243.589 28.1644C243.447 28.4019 243.38 28.6748 243.396 28.9502V29.1122C243.38 29.3875 243.445 29.6616 243.585 29.9004C243.795 30.1965 244.208 30.2696 244.508 30.0625C244.569 30.021 244.622 29.9686 244.665 29.9102C244.804 29.6714 244.87 29.3985 244.854 29.1232V28.9562L244.855 28.9575Z" fill="white"/>
<path d="M248.722 27.3676V30.685H248.027V27.9207H247.13L247.075 29.0902C247.069 29.4058 247.019 29.7201 246.929 30.0234C246.871 30.222 246.75 30.3974 246.585 30.5229C246.401 30.6374 246.185 30.6935 245.966 30.6837H245.786V30.1343L245.901 30.1233C246.073 30.1026 246.217 29.9869 246.275 29.8261C246.373 29.5227 246.422 29.2072 246.421 28.888L246.479 27.3663H248.722V27.3676Z" fill="white"/>
<path d="M252.088 29.1012C252.094 29.3973 252.035 29.6921 251.911 29.9626C251.805 30.1989 251.63 30.3975 251.409 30.5364C250.947 30.802 250.376 30.802 249.914 30.5364C249.693 30.4011 249.516 30.2038 249.406 29.9711C249.283 29.7055 249.22 29.4168 249.225 29.1244V28.9611C249.219 28.6639 249.281 28.3702 249.404 28.0998C249.511 27.8634 249.687 27.6636 249.909 27.526C250.371 27.2604 250.941 27.2604 251.403 27.526C251.625 27.6649 251.8 27.8647 251.909 28.0998C252.033 28.3702 252.094 28.6639 252.088 28.9611V29.1012ZM251.385 28.9575C251.404 28.6809 251.338 28.4044 251.196 28.1644C250.978 27.8707 250.558 27.8074 250.261 28.0243C250.206 28.0632 250.158 28.1108 250.119 28.1644C249.977 28.4019 249.91 28.6748 249.926 28.9502V29.1122C249.91 29.3875 249.976 29.6616 250.115 29.9004C250.234 30.0832 250.441 30.1892 250.661 30.1806C250.874 30.1892 251.078 30.0868 251.196 29.9102C251.337 29.6726 251.403 29.3985 251.385 29.1232V28.9562V28.9575Z" fill="white"/>
<path d="M254.795 27.9219H253.288V30.6862H252.589V27.3688H254.789L254.795 27.9231V27.9219Z" fill="white"/>
<path d="M257.245 27.3676H257.939V30.685H257.245V28.4859L255.899 30.6898H255.208V27.3676H255.901V29.5751L257.245 27.3676Z" fill="white"/>
<path d="M260.55 27.3676H261.245V30.685H260.55V28.4859L259.205 30.6898H258.512V27.3676H259.205V29.5751L260.55 27.3676Z" fill="white"/>
<path d="M265.215 27.9219H263.715V28.5639H264.255C264.593 28.5469 264.926 28.648 265.195 28.8514C265.426 29.0378 265.555 29.3205 265.544 29.6153C265.555 29.9126 265.428 30.1989 265.198 30.3926C264.939 30.5972 264.613 30.7032 264.282 30.6898H263.017V27.3688H265.216V27.9231L265.215 27.9219ZM263.715 29.1146V30.1355H264.267C264.421 30.144 264.573 30.0917 264.691 29.9918C264.798 29.8931 264.856 29.7518 264.849 29.6068C264.856 29.4728 264.803 29.3424 264.703 29.251C264.587 29.1548 264.44 29.1036 264.288 29.1073L263.715 29.1146Z" fill="white"/>
<path d="M267.204 28.9355L267.815 27.3676H268.563L267.389 30.1038L267.294 30.2829C267.137 30.5729 266.826 30.7471 266.494 30.7325L266.252 30.7239V30.1745C266.311 30.183 266.372 30.1867 266.432 30.1842C266.514 30.1879 266.594 30.1708 266.667 30.1343C266.735 30.0892 266.785 30.0246 266.812 29.9491L266.899 29.7323L265.719 27.3676H266.466L267.205 28.9355H267.204Z" fill="white"/>
<path d="M271.856 31.5H271.211V30.685H269.189V31.5H268.535L268.497 30.138H268.751C268.901 30.0052 269.011 29.8334 269.068 29.6421C269.15 29.379 269.198 29.1073 269.214 28.8319L269.311 27.3688H271.514V30.1367H271.905L271.856 31.4988V31.5ZM269.546 30.1343H270.827V27.9207H269.974L269.916 28.793C269.871 29.3777 269.746 29.8236 269.545 30.1343H269.546Z" fill="white"/>
<path d="M273.538 28.9355L274.149 27.3676H274.898L273.723 30.1038L273.628 30.2829C273.472 30.5729 273.161 30.7471 272.829 30.7325L272.586 30.7239V30.1745C272.645 30.183 272.706 30.1867 272.766 30.1842C272.848 30.1879 272.928 30.1708 273.001 30.1343C273.067 30.0892 273.118 30.0246 273.146 29.9491L273.23 29.7323L272.05 27.3676H272.797L273.538 28.9355Z" fill="white"/>
<path d="M275.949 27.3676V30.1355H276.884V27.3676H277.579V30.1355H278.503V27.3676H279.195V30.1574H279.632L279.587 31.4829H278.967V30.6862H275.252V27.3688H275.947L275.949 27.3676Z" fill="white"/>
<path d="M282.109 29.2462H280.779V30.1343H282.338V30.6837H280.085V27.3663H282.333V27.9207H280.779V28.7101H282.109V29.2462Z" fill="white"/>
<path d="M284.949 27.9219H283.442V30.6862H282.75V27.3688H284.949V27.9231V27.9219Z" fill="white"/>
<path d="M287.985 29.1012C287.992 29.3973 287.932 29.6921 287.808 29.9626C287.702 30.1989 287.528 30.3987 287.306 30.5364C286.844 30.802 286.274 30.802 285.812 30.5364C285.59 30.4011 285.413 30.2038 285.305 29.9711C285.18 29.7055 285.117 29.4168 285.122 29.1244V28.9611C285.116 28.6639 285.178 28.3702 285.301 28.0998C285.408 27.8634 285.585 27.6636 285.807 27.526C286.269 27.2604 286.839 27.2604 287.301 27.526C287.522 27.6649 287.698 27.8647 287.806 28.0998C287.93 28.3702 287.991 28.6639 287.985 28.9611V29.1012ZM287.284 28.9575C287.301 28.6809 287.235 28.4044 287.095 28.1644C286.875 27.8707 286.455 27.8074 286.156 28.0243C286.102 28.0632 286.055 28.1108 286.015 28.1644C285.874 28.4019 285.807 28.6748 285.824 28.9502V29.1122C285.808 29.3875 285.874 29.6616 286.013 29.9004C286.223 30.1965 286.637 30.2696 286.937 30.0625C286.997 30.021 287.05 29.9686 287.093 29.9102C287.233 29.6714 287.298 29.3985 287.282 29.1232V28.9562L287.284 28.9575Z" fill="white"/>
<path d="M211.147 20.528C211.065 20.3075 210.986 20.0846 210.898 19.8653C210.708 19.3792 210.483 18.9065 210.224 18.4521C209.996 18.0622 209.745 17.687 209.473 17.3264C209.041 16.755 208.554 16.2262 208.019 15.7474C207.866 15.6037 207.695 15.488 207.529 15.3613C207.334 15.2175 207.139 15.0737 206.939 14.93C206.714 14.7679 206.477 14.6242 206.229 14.4987C206.084 14.4256 205.938 14.3367 205.781 14.255C205.435 14.0796 205.08 13.9237 204.716 13.7897C204.196 13.5886 203.662 13.429 203.116 13.3133C202.725 13.2158 202.323 13.1598 201.92 13.1464C201.904 13.1488 201.889 13.1488 201.873 13.1464C201.472 13.0733 201.063 13.0416 200.656 13.0526C200.593 13.0526 200.528 13.0367 200.469 13.1086C200.48 13.3559 200.515 13.602 200.57 13.8433C200.636 14.1308 200.716 14.4085 200.796 14.6863C200.873 14.9348 200.961 15.1822 201.061 15.4209C201.217 15.7962 201.375 16.1714 201.559 16.532C201.789 16.967 202.048 17.3848 202.337 17.782C202.663 18.2364 203.025 18.664 203.418 19.0624C203.757 19.3987 204.113 19.7154 204.486 20.0127C204.822 20.2746 205.175 20.5134 205.543 20.7303C205.751 20.8606 205.966 20.9861 206.184 21.1018C206.329 21.1774 206.475 21.2334 206.621 21.298C206.811 21.3796 207.001 21.4661 207.193 21.538C207.613 21.6988 208.043 21.834 208.48 21.9425C208.983 22.0667 209.496 22.1557 210.012 22.2105C210.061 22.2178 210.109 22.2275 210.157 22.2422C210.157 22.2811 210.157 22.3092 210.146 22.325C209.709 22.8915 209.273 23.4739 208.733 23.9734C208.644 23.9173 208.559 23.8564 208.478 23.7906C208.169 23.5141 207.839 23.2594 207.493 23.028C207.335 22.9208 207.169 22.8257 206.997 22.7404C206.713 22.5869 206.432 22.4273 206.14 22.2897C205.759 22.1021 205.364 21.9449 204.958 21.817C204.697 21.739 204.438 21.6537 204.175 21.5928C203.618 21.4515 203.052 21.3552 202.479 21.3053C202.052 21.2748 201.625 21.2663 201.18 21.2578C201.167 21.3126 201.135 21.3674 201.144 21.4015C201.217 21.6744 201.237 21.9571 201.321 22.2324C201.395 22.4797 201.436 22.7404 201.52 22.9878C201.644 23.3569 201.783 23.7224 201.941 24.083C202.06 24.3559 202.189 24.6239 202.327 24.8871C202.473 25.1563 202.633 25.4182 202.807 25.6704C202.981 25.9312 203.173 26.1797 203.364 26.427C203.496 26.5963 203.642 26.7535 203.801 26.9314C202.073 27.5052 200.31 27.5844 198.51 27.4041C195.388 26.9302 192.779 25.5376 190.768 23.1266C188.727 20.6693 187.799 17.81 188.036 14.623C188.273 11.4359 189.626 8.75933 192.012 6.5993C193.103 5.60639 194.376 4.82668 195.762 4.3016C198.672 3.20148 201.896 3.23559 204.781 4.39662C206.214 4.97044 207.519 5.81593 208.62 6.88803C210.041 8.24521 211.103 9.92645 211.711 11.7831C212.656 14.6607 212.469 17.7832 211.189 20.5317C211.176 20.5317 211.161 20.5317 211.147 20.5268V20.528ZM210.802 14.0418C210.808 13.97 210.808 13.8969 210.802 13.825C210.735 13.4863 210.666 13.1488 210.588 12.8199C210.544 12.6311 210.489 12.4459 210.424 12.2631C210.308 11.9391 210.189 11.6126 210.056 11.2958C209.944 11.0278 209.81 10.7671 209.681 10.5076C209.603 10.3407 209.514 10.1786 209.414 10.0239C209.188 9.69376 208.947 9.377 208.72 9.04928C208.443 8.66674 208.129 8.311 207.785 7.98571C207.507 7.70916 207.212 7.44966 206.903 7.20722C206.612 6.98306 206.322 6.77595 206.022 6.57249C205.916 6.49818 205.807 6.42995 205.693 6.3666C205.58 6.30081 205.46 6.24477 205.344 6.18386C205.139 6.07665 204.935 5.96091 204.724 5.86467C204.513 5.76842 204.287 5.69654 204.084 5.59664C203.813 5.47847 203.534 5.38222 203.249 5.30912C202.909 5.20557 202.557 5.13369 202.209 5.05694C201.989 5.00942 201.772 4.96678 201.546 4.9412C201.268 4.90953 200.986 4.89247 200.707 4.88394C200.428 4.87541 200.126 4.88394 199.805 4.88394C199.788 4.93389 199.78 4.98506 199.78 5.03745C199.804 5.18851 199.84 5.33593 199.869 5.48578C199.909 5.6807 199.933 5.8805 199.985 6.07178C200.149 6.66021 200.357 7.23646 200.607 7.79444C200.749 8.1246 200.916 8.44257 201.106 8.74714C201.321 9.08339 201.522 9.42939 201.765 9.75223C202.069 10.147 202.401 10.5222 202.741 10.8877C203.032 11.1947 203.349 11.4773 203.689 11.7307C204 11.9671 204.333 12.1827 204.654 12.4069C204.724 12.4544 204.787 12.5129 204.863 12.5507C205.105 12.681 205.347 12.8138 205.59 12.932C205.881 13.0757 206.171 13.2073 206.474 13.3267C206.87 13.4814 207.277 13.6033 207.687 13.7202C207.761 13.7397 207.833 13.7714 207.908 13.786C208.199 13.842 208.49 13.9042 208.781 13.9493C209.42 14.0455 210.067 14.0833 210.713 14.0626C210.742 14.0577 210.772 14.0504 210.8 14.0406L210.802 14.0418Z" fill="white"/>
<path d="M272.184 24.0612C272.121 24.0612 272.06 24.0782 271.998 24.0782H268.503C268.492 24.0283 268.483 23.9771 268.478 23.9259V15.2907C268.487 15.1749 268.446 15.0604 268.364 14.9764C267.942 14.4842 267.521 13.9908 267.102 13.4961C266.891 13.2476 266.683 12.9991 266.475 12.7493C266.454 12.7176 266.434 12.6847 266.417 12.6506H277.292C278.854 12.6263 280.152 13.8275 280.229 15.3674C280.238 15.5112 280.229 15.6549 280.229 15.7987V24.0453C280.046 24.0794 276.853 24.088 276.559 24.0551C276.549 24.0075 276.543 23.96 276.539 23.9113V16.0472C276.549 15.8535 276.497 15.6622 276.393 15.499C276.268 15.2809 276.037 15.1433 275.782 15.1323C275.721 15.1225 275.659 15.1177 275.597 15.1152H272.356C272.304 15.1152 272.251 15.1152 272.179 15.125V23.6469C272.181 23.7846 272.181 23.9223 272.181 24.0599L272.184 24.0612Z" fill="white"/>
<path d="M254.859 15.0324C254.613 14.7363 254.367 14.4379 254.117 14.1418C253.73 13.6825 253.336 13.2244 252.953 12.7651C252.932 12.7371 252.912 12.7067 252.894 12.6762C252.985 12.6482 253.078 12.6397 253.172 12.6506H256.492C258.034 12.6506 259.575 12.6506 261.117 12.6591C262.691 12.6616 263.975 13.903 264.01 15.4563V24.0502C263.947 24.0599 263.897 24.0721 263.845 24.077C263.813 24.0794 263.782 24.0794 263.75 24.077H255.147C254.317 24.0879 253.523 23.7334 252.985 23.1097C252.536 22.6284 252.282 22.0022 252.269 21.3492C252.259 20.9179 252.258 20.4879 252.269 20.0566C252.32 18.5228 253.596 17.3057 255.15 17.3057H259.942C260.058 17.3057 260.173 17.3057 260.302 17.2948C260.302 17.2351 260.32 17.1827 260.32 17.1315C260.32 16.7465 260.32 16.364 260.305 15.9826C260.314 15.6586 260.13 15.3589 259.835 15.2151C259.711 15.1432 259.568 15.1152 259.426 15.1347C259.342 15.1347 259.256 15.1238 259.172 15.1238H255.13C255.03 15.1359 254.929 15.103 254.856 15.0336L254.859 15.0324ZM260.273 22.107C260.32 21.8889 260.32 19.4292 260.273 19.1977H257.061C256.447 19.2221 255.962 19.7216 255.963 20.3271C255.963 20.5634 255.952 20.8034 255.963 21.0447C255.973 21.4796 256.242 21.867 256.65 22.0327C256.839 22.107 257.041 22.1399 257.245 22.1289H260.052C260.126 22.1216 260.201 22.1107 260.272 22.1058L260.273 22.107Z" fill="white"/>
<path d="M287.974 7.97968C288.009 8.5803 288.009 9.18213 287.974 9.78275C287.969 9.78884 287.963 9.79372 287.957 9.79737C287.951 9.80224 287.943 9.80468 287.935 9.8059H243.302C243.273 9.80346 243.246 9.79737 243.219 9.78884C243.188 9.59513 243.181 9.39777 243.195 9.20163V8.5803C243.195 8.37319 243.185 8.18313 243.195 8.00648C243.22 7.9809 243.223 7.97359 243.229 7.96871C243.235 7.96384 243.242 7.9614 243.251 7.96019C243.282 7.95531 243.311 7.95166 243.342 7.95044H287.887C287.916 7.95775 287.946 7.96871 287.974 7.9809V7.97968Z" fill="white"/>
<path d="M236.246 7.01965H239.934C239.934 7.1025 239.944 7.17803 239.944 7.25235V21.4284C239.937 21.5441 239.979 21.6562 240.058 21.7415C240.447 22.1923 240.831 22.6455 241.215 23.0999C241.461 23.3874 241.704 23.6737 241.942 23.9612C241.958 23.9831 241.973 24.0051 241.988 24.0282C241.978 24.0453 241.974 24.0514 241.969 24.055C241.963 24.0599 241.956 24.0623 241.947 24.0623H236.266C236.255 24.0112 236.248 23.96 236.243 23.9076V7.40463C236.245 7.2828 236.245 7.16219 236.245 7.01965H236.246Z" fill="white"/>
<path d="M218.84 7.01477H222.477C222.477 7.07081 222.499 7.12076 222.501 7.17071V21.6063C222.85 22.0156 223.197 22.4176 223.539 22.8245C223.881 23.2327 224.231 23.6274 224.581 24.0635H218.849L218.826 24.0404C218.826 24.0404 218.818 24.0282 218.817 24.0209C218.817 23.9819 218.81 23.9454 218.81 23.9064V7.07325C218.815 7.0635 218.826 7.0501 218.84 7.01477Z" fill="white"/>
<path d="M231.558 24.0684C231.433 24.0684 231.307 24.0781 231.185 24.0781H227.877C227.866 24.0257 227.858 23.9721 227.853 23.9185V15.3149C227.857 15.1858 227.81 15.0591 227.723 14.9629C227.118 14.2599 226.519 13.5521 225.919 12.8455C225.877 12.7943 225.838 12.7407 225.802 12.7017C225.805 12.6895 225.81 12.6773 225.817 12.6664H231.541C231.541 12.7809 231.558 12.8966 231.559 13.0112V23.6018C231.558 23.748 231.558 23.9076 231.558 24.0684Z" fill="white"/>
<path d="M248.997 24.0623C248.936 24.0623 248.875 24.0769 248.812 24.0781H245.315C245.315 24.0196 245.299 23.9587 245.299 23.9015V15.4124C245.305 15.2285 245.238 15.0506 245.113 14.9141C244.521 14.2307 243.941 13.5387 243.355 12.8491C243.312 12.798 243.275 12.7419 243.222 12.6688H248.953C248.966 12.7042 248.983 12.7444 248.999 12.787C248.999 12.8772 248.991 12.971 248.991 13.0611V23.5421C248.996 23.7102 248.997 23.8929 248.997 24.0635V24.0623Z" fill="white"/>
<path d="M282.233 12.6592H287.98C287.988 12.7164 287.995 12.7688 287.998 12.82C288 12.8712 287.998 12.9114 287.998 12.9638V24.0356L287.967 24.0624C287.967 24.0624 287.953 24.0758 287.948 24.0758L284.445 24.0831C284.407 24.0831 284.37 24.0831 284.316 24.0746C284.308 24.0222 284.303 23.9698 284.3 23.9162V15.2444C284.303 15.153 284.267 15.0641 284.203 14.9971C283.575 14.2624 282.949 13.5278 282.326 12.792C282.301 12.7591 282.276 12.7201 282.231 12.658L282.233 12.6592Z" fill="white"/>
<path d="M231.546 9.80586H225.783C225.752 9.60971 225.745 9.41113 225.76 9.21255V7.99548C225.851 7.95771 225.952 7.94431 226.051 7.96015H231.304C231.379 7.96015 231.449 7.96015 231.546 7.96989C231.553 8.58757 231.544 9.18331 231.546 9.80586Z" fill="white"/>
</g>
<defs>
<clipPath id="clip0_190_27389">
<rect width="100" height="28" fill="white" transform="translate(188 3.5)"/>
</clipPath>
</defs>
</svg>
