<svg width="123" height="30" viewBox="0 0 123 30" fill="none" xmlns="http://www.w3.org/2000/svg">
<g clip-path="url(#clip0_190_27512)">
<path d="M28.3795 21.4017C29.8346 18.2868 30.1803 14.7626 29.3584 11.4213C28.5366 8.08009 26.5973 5.12554 23.8665 3.05433C21.1358 0.983112 17.7801 -0.0785023 14.3634 0.0479295C10.9468 0.174361 7.67753 1.48113 5.10518 3.74859C2.53283 6.01604 0.814202 9.10594 0.238186 12.4989C-0.337829 15.8919 0.263882 19.3811 1.94218 22.38C3.62048 25.3789 6.27304 27.7047 9.45401 28.9665C12.635 30.2283 16.1504 30.3491 19.4094 29.3086C17.6266 27.3308 16.4793 24.8567 16.1181 22.2107C16.2769 22.2107 16.4357 22.2107 16.5852 22.2107C19.8457 22.2063 22.9913 23.4226 25.4105 25.6232C26.0875 24.9417 26.6984 24.1967 27.2349 23.3984C24.2478 23.1439 21.4357 21.8731 19.2615 19.7953C17.0872 17.7174 15.6804 14.9562 15.2724 11.9661C15.4313 11.9661 15.5901 11.9661 15.7396 11.9661C18.5733 11.9647 21.3323 12.8813 23.6086 14.5805C25.8849 16.2798 27.5576 18.6714 28.3795 21.4017ZM14.4198 1.7239C14.5787 1.7239 14.7375 1.7239 14.8987 1.7239C18.0872 1.72205 21.1685 2.88236 23.5732 4.99037C25.9779 7.09838 27.5433 10.0116 27.9801 13.1914C27.8212 13.1914 27.6624 13.1914 27.5129 13.1914C24.3225 13.1956 21.2386 12.0364 18.8316 9.92826C16.4246 7.82008 14.8573 4.90558 14.4198 1.7239Z" fill="#E73A42"/>
<path d="M44.8575 25.7173L42.2856 22.6317V4.38382H37.7422V25.7173H44.8575Z" fill="white"/>
<path d="M46.2427 11.4276L48.8146 14.5132V25.7173H53.3557V11.4276H46.2427Z" fill="white"/>
<path d="M66.2175 25.7173L63.6456 22.6317V4.38382H59.1045V25.7173H66.2175Z" fill="white"/>
<path d="M67.6025 11.4276L70.1744 14.5132V25.7173H74.7179V11.4276H67.6025Z" fill="white"/>
<path d="M115.387 11.4276L117.959 14.5132V25.7173H122.5V11.4276H115.387Z" fill="white"/>
<path d="M89.5491 11.437H79.4274L81.9969 14.5226H87.5145C87.7914 14.5226 88.057 14.6333 88.2528 14.8305C88.4486 15.0276 88.5586 15.295 88.5586 15.5738L88.5867 17.2507H82.2656C81.3265 17.2532 80.4266 17.6299 79.7626 18.2984C79.0985 18.967 78.7244 19.873 78.7219 20.8184V22.1402C78.7219 23.0889 79.0963 23.9987 79.7626 24.6696C80.4289 25.3404 81.3326 25.7173 82.2749 25.7173H93.1138V15.0141C93.1138 14.5434 93.0215 14.0772 92.8422 13.6425C92.6629 13.2077 92.4002 12.8128 92.069 12.4805C91.7378 12.1482 91.3448 11.885 90.9124 11.7059C90.4799 11.5268 90.0167 11.4354 89.5491 11.437ZM88.561 23.2596H84.6506C84.2789 23.2596 83.9224 23.111 83.6595 22.8463C83.3967 22.5817 83.249 22.2228 83.249 21.8485V21.0183C83.249 20.6441 83.3967 20.2852 83.6595 20.0205C83.9224 19.7559 84.2789 19.6072 84.6506 19.6072H88.561V23.2596Z" fill="white"/>
<path d="M109.442 11.4276H96.0078L98.5774 14.5132V25.7173H103.121V14.5132H107.412C107.549 14.5132 107.685 14.5404 107.812 14.5932C107.938 14.646 108.053 14.7235 108.15 14.8211C108.247 14.9187 108.324 15.0346 108.377 15.1621C108.429 15.2897 108.456 15.4264 108.456 15.5644V25.7173H112.997V15.0047C112.997 14.5348 112.905 14.0694 112.727 13.6353C112.548 13.2011 112.286 12.8067 111.956 12.4745C111.626 12.1423 111.234 11.8788 110.802 11.6992C110.371 11.5196 109.909 11.4273 109.442 11.4276Z" fill="white"/>
<path d="M53.3557 5.55504H46.2427V7.89982H53.3557V5.55504Z" fill="#E73A42"/>
<path d="M122.5 5.55504H67.6025V7.89982H122.5V5.55504Z" fill="#E73A42"/>
</g>
<defs>
<clipPath id="clip0_190_27512">
<rect width="122.5" height="30" fill="white"/>
</clipPath>
</defs>
</svg>
